<?xml version="1.0" standalone="no"?>
<!DOCTYPE svg PUBLIC "-//W3C//DTD SVG 20010904//EN"
 "http://www.w3.org/TR/2001/REC-SVG-20010904/DTD/svg10.dtd">
<svg version="1.0" xmlns="http://www.w3.org/2000/svg"
 width="300.000000pt" height="109.000000pt" viewBox="0 0 300.000000 109.000000"
 preserveAspectRatio="xMidYMid meet">
<g transform="translate(0.000000,109.000000) scale(0.100000,-0.100000)"
fill="#000000" stroke="none">
<path d="M142 894 c-22 -15 -22 -17 -22 -309 0 -292 0 -294 22 -309 18 -13 54
-16 188 -16 l166 0 -2 -62 c-1 -63 -1 -63 -33 -66 -17 -2 -31 -7 -31 -13 0 -5
63 -9 150 -9 87 0 150 4 150 9 0 6 -14 11 -32 13 l-32 3 -2 62 -1 63 166 0
c135 0 171 3 189 16 22 15 22 17 22 309 0 292 0 294 -22 309 -19 14 -78 16
-438 16 -360 0 -419 -2 -438 -16z m859 -14 c18 -10 19 -24 19 -293 0 -207 -3
-286 -12 -295 -17 -17 -839 -17 -856 0 -9 9 -12 88 -12 295 0 258 1 283 18
292 24 14 816 15 843 1z m-353 -682 l-3 -63 -67 -3 -68 -3 0 66 0 65 70 0 71
0 -3 -62z"/>
<path d="M627 730 c-61 -142 -124 -311 -116 -315 9 -6 17 9 91 197 27 70 48
133 45 140 -3 7 -12 -3 -20 -22z"/>
<path d="M322 646 c-52 -29 -93 -57 -93 -61 0 -8 187 -115 202 -115 23 0 -6
22 -86 66 -47 25 -85 47 -85 49 0 2 38 24 85 49 46 26 87 51 90 56 13 21 -24
7 -113 -44z"/>
<path d="M720 693 c0 -5 41 -30 90 -56 50 -27 90 -50 90 -52 0 -2 -39 -25 -87
-51 -102 -54 -98 -52 -90 -60 7 -7 96 37 176 86 l43 27 -102 57 c-102 56 -120
63 -120 49z"/>
<path d="M1290 680 c0 -5 9 -10 20 -10 19 0 20 -7 20 -145 0 -185 18 -196 22
-14 l3 131 58 -81 c32 -45 62 -81 66 -81 4 0 34 37 67 82 l59 82 3 -124 c2
-84 7 -127 15 -132 20 -13 47 -9 47 7 0 8 -9 15 -20 15 -19 0 -20 7 -20 130 0
123 1 130 20 130 11 0 20 5 20 10 0 6 -13 10 -29 10 -26 0 -38 -12 -92 -85
-34 -47 -65 -85 -70 -85 -4 0 -36 38 -70 85 -52 73 -65 85 -90 85 -16 0 -29
-4 -29 -10z"/>
<path d="M1750 571 c-29 -8 -43 -61 -16 -61 9 0 16 8 16 19 0 23 39 35 74 21
20 -7 26 -17 26 -38 0 -26 -2 -28 -35 -24 -53 6 -84 -5 -96 -35 -22 -58 52
-97 109 -57 20 14 24 14 38 0 18 -18 54 -21 54 -5 0 6 -9 13 -20 16 -17 5 -20
14 -20 65 0 91 -43 123 -130 99z m98 -117 c-2 -9 -15 -26 -30 -37 -31 -23 -78
-17 -78 11 0 29 21 42 68 42 35 0 43 -3 40 -16z"/>
<path d="M2017 560 c-21 -17 -26 -18 -31 -5 -6 17 -56 21 -56 5 0 -5 9 -10 20
-10 18 0 20 -7 20 -86 0 -64 3 -85 13 -81 8 2 11 20 9 51 -5 58 11 100 44 115
30 13 44 7 44 -20 0 -10 5 -19 10 -19 17 0 12 57 -6 64 -26 10 -40 7 -67 -14z"/>
<path d="M2194 570 c-57 -23 -73 -116 -29 -164 18 -19 34 -26 62 -26 42 0 83
23 83 46 0 20 -13 18 -33 -6 -53 -63 -147 26 -106 101 24 45 109 43 109 -2 0
-23 23 -22 28 2 7 38 -66 70 -114 49z"/>
<path d="M2520 515 c0 -57 -3 -69 -25 -90 -26 -27 -69 -33 -82 -12 -4 6 -10
44 -13 82 l-5 70 -34 3 c-21 2 -31 0 -26 -7 3 -6 15 -11 26 -11 17 0 19 -7 19
-68 0 -54 4 -72 18 -85 23 -21 61 -22 90 -1 21 15 25 15 42 -1 19 -17 50 -17
53 0 1 6 -8 11 -20 13 -22 3 -23 8 -23 88 0 49 -4 84 -10 84 -6 0 -10 -28 -10
-65z"/>
<path d="M2653 570 c-29 -12 -39 -48 -19 -69 9 -9 38 -23 64 -31 82 -26 64
-78 -24 -68 -21 2 -30 9 -32 26 -5 32 -22 27 -22 -7 0 -32 17 -41 83 -41 24 0
44 7 57 20 38 38 22 65 -51 90 -62 21 -79 53 -35 64 39 10 76 -3 76 -25 0 -10
5 -19 10 -19 6 0 10 11 10 25 0 38 -62 57 -117 35z"/>
</g>
</svg>
